<svg width="16" height="16" viewBox="0 0 16 16" fill="none" xmlns="http://www.w3.org/2000/svg">
<g clip-path="url(#clip0_16_8641)">
<path d="M14.4001 4.80039C13.9601 4.80039 13.6001 4.44039 13.6001 4.00039C13.6001 3.56039 13.9601 3.20039 14.4001 3.20039V2.40039H1.60006V3.20039C2.04006 3.20039 2.40006 3.56039 2.40006 4.00039C2.40006 4.44039 2.04006 4.80039 1.60006 4.80039H6.10352e-05V10.4004H1.60006C2.04006 10.4004 2.40006 10.7604 2.40006 11.2004C2.40006 11.6404 2.04006 12.0004 1.60006 12.0004V12.8004H14.4001V12.0004C13.9601 12.0004 13.6001 11.6404 13.6001 11.2004C13.6001 10.7604 13.9601 10.4004 14.4001 10.4004H16.0001V4.80039H14.4001ZM14.4001 8.00039H13.6001V8.80039H12.0001V8.00039H9.12806C8.96006 8.46439 8.52006 8.80039 8.00006 8.80039C7.48006 8.80039 7.04006 8.46439 6.87206 8.00039H4.00006V8.80039H2.40006V8.00039H1.60006V7.20039H2.40006V6.40039H4.00006V7.20039H6.87206C7.04006 6.73639 7.48006 6.40039 8.00006 6.40039C8.52006 6.40039 8.96006 6.73639 9.12806 7.20039H12.0001V6.40039H13.6001V7.20039H14.4001V8.00039Z" fill="white"/>
</g>
<defs>
<clipPath id="clip0_16_8641">
<rect width="16" height="16" fill="white"/>
</clipPath>
</defs>
</svg>
