<svg width="16" height="16" viewBox="0 0 16 16" fill="none" xmlns="http://www.w3.org/2000/svg">
<g clip-path="url(#clip0_16_8637)">
<path d="M14.5454 7.27264C13.0908 7.27264 12.3636 5.09082 10.1818 5.09082C7.99994 5.09082 7.99994 6.54537 7.99994 6.54537C7.99994 6.54537 7.99994 5.09082 5.81812 5.09082C3.6363 5.09082 2.90903 7.27264 1.45448 7.27264C0.727212 7.27264 -6.10352e-05 6.54537 -6.10352e-05 6.54537C-6.10352e-05 6.54537 0.727212 10.1817 3.6363 10.1817C7.27267 10.1817 7.99994 7.99991 7.99994 7.99991C7.99994 7.99991 8.72721 10.1817 12.3636 10.1817C15.2727 10.1817 15.9999 6.54537 15.9999 6.54537C15.9999 6.54537 15.2727 7.27264 14.5454 7.27264Z" fill="white"/>
</g>
<defs>
<clipPath id="clip0_16_8637">
<rect width="16" height="16" fill="white"/>
</clipPath>
</defs>
</svg>
