<svg width="16" height="16" viewBox="0 0 16 16" fill="none" xmlns="http://www.w3.org/2000/svg">
<g clip-path="url(#clip0_16_8631)">
<path fill-rule="evenodd" clip-rule="evenodd" d="M0.418826 2.43528C0.0341566 3.09963 -0.0913062 3.88274 0.0665666 4.634C0.224439 5.38527 0.654499 6.05164 1.27404 6.50496C1.89358 6.95829 2.65884 7.16654 3.42266 7.08968C4.18648 7.01282 4.89491 6.65628 5.41171 6.08861L6.1966 6.54195C6.21883 6.62372 6.32727 6.64506 6.38327 6.58017C6.5172 6.42313 6.66534 6.27972 6.82771 6.14995C7.08194 5.9455 7.09438 5.51972 6.81171 5.35706L6.07838 4.93306C6.30772 4.20277 6.25986 3.41358 5.94396 2.71636C5.62806 2.01913 5.06628 1.46279 4.36602 1.15369C3.66576 0.84459 2.87614 0.804414 2.14812 1.04084C1.4201 1.27727 0.80475 1.77372 0.419715 2.43528M2.22416 5.53039C2.02034 5.41451 1.84146 5.25946 1.69782 5.07417C1.55417 4.88887 1.44859 4.677 1.38716 4.45073C1.32573 4.22447 1.30967 3.98829 1.33989 3.75579C1.37011 3.5233 1.44602 3.29907 1.56325 3.09603C1.68048 2.89299 1.83671 2.71514 2.02295 2.57273C2.20919 2.43031 2.42177 2.32614 2.64843 2.26621C2.8751 2.20629 3.11138 2.19179 3.34367 2.22355C3.57596 2.25531 3.79968 2.33271 4.00194 2.45128C4.40693 2.6887 4.70157 3.07668 4.82156 3.53054C4.94155 3.98439 4.87716 4.46729 4.64243 4.87385C4.40769 5.2804 4.02168 5.57761 3.56863 5.70061C3.11558 5.82361 2.63226 5.76242 2.22416 5.53039ZM7.96283 6.49928C7.61974 6.64391 7.31422 6.86499 7.06959 7.14567C6.82496 7.42635 6.64768 7.75921 6.55127 8.11883L6.19749 9.43972L5.41171 9.89306C4.89396 9.32864 4.18625 8.97497 3.42404 8.89976C2.66182 8.82454 1.89863 9.03306 1.28055 9.48539C0.662464 9.93773 0.232901 10.6021 0.0740732 11.3514C-0.0847543 12.1007 0.038311 12.8822 0.419715 13.5464C0.803106 14.211 1.41857 14.7105 2.14785 14.9489C2.87713 15.1873 3.66879 15.1478 4.37073 14.8381C5.07268 14.5283 5.63539 13.97 5.95075 13.2705C6.26611 12.5711 6.31188 11.7798 6.07927 11.0486L15.5726 5.56772C15.6865 5.50162 15.7783 5.40325 15.8363 5.28505C15.8944 5.16684 15.9161 5.03409 15.8988 4.90354C15.8815 4.77298 15.8259 4.65048 15.7391 4.55148C15.6522 4.45249 15.538 4.38143 15.4108 4.34728L14.7859 4.17928C14.261 4.03886 13.7043 4.07733 13.2037 4.28861L7.96283 6.49928ZM1.57349 12.8797C1.45492 12.6775 1.37752 12.4537 1.34576 12.2215C1.314 11.9892 1.3285 11.7529 1.38843 11.5262C1.44835 11.2996 1.55252 11.087 1.69494 10.9007C1.83735 10.7145 2.0152 10.5583 2.21824 10.441C2.42128 10.3238 2.64551 10.2479 2.87801 10.2177C3.1105 10.1875 3.34668 10.2035 3.57295 10.265C3.79921 10.3264 4.01109 10.432 4.19638 10.5756C4.38167 10.7193 4.53672 10.8981 4.6526 11.1019C4.88463 11.51 4.94582 11.9934 4.82282 12.4464C4.69982 12.8995 4.40262 13.2855 3.99606 13.5202C3.5895 13.7549 3.10661 13.8193 2.65275 13.6993C2.19889 13.5794 1.81092 13.2847 1.57349 12.8797Z" fill="white"/>
<path d="M10.242 9.67101C10.1703 9.71236 10.1116 9.77292 10.0725 9.84584C10.0333 9.91877 10.0153 10.0012 10.0205 10.0838C10.0257 10.1664 10.0538 10.2459 10.1018 10.3134C10.1497 10.3808 10.2155 10.4336 10.2918 10.4657L13.202 11.6932C13.7026 11.9045 14.2593 11.943 14.7842 11.8026L15.41 11.6346C15.5371 11.6002 15.6511 11.529 15.7378 11.4299C15.8244 11.3308 15.8798 11.2082 15.8969 11.0777C15.914 10.9472 15.8921 10.8145 15.834 10.6964C15.7758 10.5783 15.6839 10.4801 15.57 10.4141L12.4856 8.63279C12.418 8.59378 12.3414 8.57324 12.2633 8.57324C12.1853 8.57324 12.1087 8.59378 12.0411 8.63279L10.242 9.67101Z" fill="white"/>
</g>
<defs>
<clipPath id="clip0_16_8631">
<rect width="16" height="16" fill="white"/>
</clipPath>
</defs>
</svg>
