<svg width="16" height="16" viewBox="0 0 16 16" fill="none" xmlns="http://www.w3.org/2000/svg">
<path d="M4.3634 8.72718C4.3634 7.76276 4.74651 6.83784 5.42846 6.15589C6.11041 5.47394 7.03534 5.09082 7.99976 5.09082C8.96418 5.09082 9.88911 5.47394 10.5711 6.15589C11.253 6.83784 11.6361 7.76276 11.6361 8.72718V12.3635C11.6361 13.7352 11.6361 14.4203 11.2099 14.8465C10.7838 15.2726 10.0987 15.2726 8.72703 15.2726H7.27249C5.90085 15.2726 5.21576 15.2726 4.78958 14.8465C4.3634 14.4203 4.3634 13.7352 4.3634 12.3635V8.72718Z" stroke="white" stroke-width="1.2" stroke-linecap="round" stroke-linejoin="round"/>
<path d="M6.54521 5.09069V4.36341C6.54521 3.6776 6.54521 3.33505 6.75831 3.12196C6.9714 2.90887 7.31394 2.90887 7.99976 2.90887M7.99976 2.90887C8.68558 2.90887 9.02812 2.90887 9.24121 3.12196C9.4543 3.33505 9.4543 3.6776 9.4543 4.36341V5.09069M7.99976 2.90887V0.727051M7.99976 0.727051H6.54521M7.99976 0.727051H9.99612C10.5468 0.727191 11.077 0.935548 11.4805 1.31032L11.6361 1.45432M4.3634 8.72705H11.6361" stroke="white" stroke-width="1.2" stroke-linecap="round" stroke-linejoin="round"/>
<rect x="4.00011" y="9" width="8" height="6" rx="1" fill="white"/>
</svg>
