<svg width="16" height="16" viewBox="0 0 16 16" fill="none" xmlns="http://www.w3.org/2000/svg">
<g clip-path="url(#clip0_47_7472)">
<path d="M13.0451 6.08189C14.2836 6.64044 15.3513 7.47898 15.9273 8.66662C15.9873 8.79027 16.011 8.92839 15.9957 9.06497C15.9804 9.20155 15.9267 9.331 15.8408 9.43832C15.755 9.54564 15.6405 9.62643 15.5106 9.67134C15.3807 9.71625 15.2407 9.72344 15.1069 9.69207C10.7745 8.6768 6.392 10.4223 4.08146 11.375C2.63127 11.9728 1.22327 11.4848 0.495274 10.5015C0.116676 10.0004 -0.054433 9.37274 0.0174563 8.7488C0.264729 6.7088 2.82909 5.83607 4.52073 5.45207C7.27055 4.8288 10.4465 4.90807 13.0451 6.08116V6.08189Z" fill="white"/>
</g>
<defs>
<clipPath id="clip0_47_7472">
<rect width="16" height="16" fill="white"/>
</clipPath>
</defs>
</svg>
