<svg width="16" height="16" viewBox="0 0 16 16" fill="none" xmlns="http://www.w3.org/2000/svg">
<g clip-path="url(#clip0_47_7478)">
<path d="M14.7692 1.84615V9.84615C14.7694 9.93052 14.7523 10.014 14.7188 10.0915C14.6854 10.1689 14.6364 10.2387 14.5748 10.2964C14.5133 10.3541 14.4405 10.3985 14.3611 10.4269C14.2817 10.4553 14.1973 10.4671 14.1131 10.4615C13.9548 10.4479 13.8076 10.3749 13.701 10.2572C13.5944 10.1395 13.5363 9.98574 13.5385 9.82692V1.84615C13.5387 1.76165 13.5215 1.67802 13.4879 1.60046C13.4544 1.5229 13.4052 1.45308 13.3435 1.39534C13.2818 1.33761 13.2089 1.2932 13.1293 1.26489C13.0497 1.23657 12.9651 1.22496 12.8808 1.23077C12.7225 1.24511 12.5756 1.3187 12.4693 1.43681C12.363 1.55492 12.3053 1.70883 12.3077 1.86769V12C12.3077 12.0816 12.2753 12.1599 12.2176 12.2176C12.1599 12.2753 12.0816 12.3077 12 12.3077H1.53846C1.45685 12.3077 1.37859 12.2753 1.32089 12.2176C1.26318 12.1599 1.23077 12.0816 1.23077 12V1.84615C1.23077 1.35652 1.42527 0.886947 1.77149 0.540726C2.11771 0.194505 2.58729 0 3.07692 0H12.9231C13.4127 0 13.8823 0.194505 14.2285 0.540726C14.5747 0.886947 14.7692 1.35652 14.7692 1.84615ZM12 13.5385H1.53846C1.45685 13.5385 1.37859 13.5709 1.32089 13.6286C1.26318 13.6863 1.23077 13.7645 1.23077 13.8462V14.7692C1.23077 15.0957 1.36044 15.4087 1.59125 15.6395C1.82206 15.8703 2.13512 16 2.46154 16H11.0769C11.4033 16 11.7164 15.8703 11.9472 15.6395C12.178 15.4087 12.3077 15.0957 12.3077 14.7692V13.8462C12.3077 13.7645 12.2753 13.6863 12.2176 13.6286C12.1599 13.5709 12.0816 13.5385 12 13.5385Z" fill="white"/>
</g>
<defs>
<clipPath id="clip0_47_7478">
<rect width="16" height="16" fill="white"/>
</clipPath>
</defs>
</svg>
